<?xml version="1.0" encoding="UTF-8"?>
<!DOCTYPE svg PUBLIC "-//W3C//DTD SVG 1.1//EN" "http://www.w3.org/Graphics/SVG/1.1/DTD/svg11.dtd">
<svg version="1.1" xmlns="http://www.w3.org/2000/svg" xmlns:xlink="http://www.w3.org/1999/xlink" x="0" y="0" width="1022" height="941" viewBox="0, 0, 1022, 941">
  <defs>
    <clipPath id="Clip_1">
      <path d="M0.06,0.666 L1021.8,0.666 L1021.8,940.94 L0.06,940.94 z"/>
    </clipPath>
  </defs>
  <g id="Layer_1">
    <g clip-path="url(#Clip_1)">
      <path d="M968.283,644.853 C960.111,648.033 952.411,652.283 943.808,654.523 C921.429,660.349 898.798,660.653 875.988,658.504 C852.575,656.298 829.711,651.304 807.111,644.965 C806.157,644.697 805.242,644.287 804.309,643.943 C804.975,640.619 808.132,640.007 810.415,638.65 C824.952,630.006 838.229,619.746 850.19,607.82 C873.329,584.751 890.013,557.557 901.483,527.052 C904.182,519.874 906.695,512.64 908.653,505.228 C909.385,502.455 910.958,501.122 913.799,500.626 C917.252,500.025 920.761,499.934 924.189,499.223 C941.494,495.632 952.731,485.185 957.498,468.363 C961.665,453.661 961.474,438.695 957.048,424.01 C952.72,409.651 941.847,401.331 926.935,400.379 C925.773,400.305 924.591,400.391 923.452,400.123 C920.362,399.394 919.397,397.688 920.659,394.604 C924.138,386.104 920.703,381.616 911.582,382.14 C903.039,382.631 894.662,381.024 886.38,379.145 C862.244,373.669 839.162,365.024 816.489,355.286 C778.33,338.897 741.052,320.758 706.732,297.154 C681.388,279.723 658.705,259.239 638.06,236.392 C614.194,209.982 594.962,180.561 579.246,148.732 C578.878,147.985 578.486,147.25 578.068,146.529 C576.29,143.461 573.634,141.997 570.131,142.6 C566.536,143.219 564.422,145.776 564.326,149.175 C564.214,153.125 562.166,154.649 558.864,155.832 C529.251,166.442 502.209,181.555 478.36,202.183 C456.745,220.877 438.787,242.602 424.663,267.45 C402.177,307.01 389.913,349.806 384.662,394.781 C384.237,398.417 382.569,399.94 378.987,400.37 C359.169,402.749 349.808,411.686 345.959,431.335 C344.633,438.103 344.685,444.903 344.644,451.731 C344.63,453.969 345.305,456.46 343.192,458.276 C341.153,457.835 340.883,456.035 340.413,454.495 C334.231,434.206 329.862,413.562 327.916,392.405 C326.742,379.636 325.718,366.875 326.031,354.041 C326.893,318.712 332.241,284.097 342.758,250.336 C345.333,242.07 347.986,233.816 351.219,225.769 C353.381,220.387 354.078,219.887 359.348,221.816 C373.036,226.827 387.067,230.404 401.617,231.35 C419.589,232.518 436.371,229.07 451.508,216.618 C442.153,217.523 433.723,218.214 425.36,216.576 C400.493,211.706 386.482,195.703 379.878,172.118 C379.085,169.284 380.013,166.903 381.434,164.55 C390.244,149.965 400.5,136.454 411.534,123.49 C426.764,105.598 444.614,90.723 463.875,77.433 C466.764,75.437 469.847,73.794 473.074,72.419 C476.717,70.867 479.986,70.035 483.638,73.216 C486.959,76.109 490.664,75.146 495.354,71.377 C503.911,64.5 512.764,58.011 521.998,52.097 C549.547,34.452 579.928,24.519 612.117,19.871 C631.095,17.13 650.251,15.785 669.382,16.9 C705.153,18.983 740.81,22.401 775.162,33.537 C804.212,42.954 831.082,56.819 856.016,74.435 C872.517,86.093 887.987,99.057 901.995,113.556 C923.707,136.028 942.617,160.734 958.114,187.957 C977.973,222.841 992.302,259.807 999.79,299.302 C1002.46,313.37 1003.88,327.585 1004.82,341.909 C1007.21,378.234 1002.59,413.659 992.576,448.491 C988.612,462.281 983.357,475.61 977.081,488.523 C968.491,506.201 958.874,523.388 951.167,541.484 C944.873,556.261 940.234,571.392 940.534,587.855 C940.826,603.914 946.132,617.804 956.012,630.146 C959.231,634.167 962.419,638.254 966.459,641.55 C967.472,642.377 968.565,643.264 968.283,644.853" fill="#D7AA6F"/>
      <path d="M979.271,630.977 C959.382,614.004 952.081,593.164 959.175,567.524 C964.681,547.624 974.411,529.637 983.896,511.567 C1022.91,437.249 1031.19,359.17 1011.57,278.14 C994.053,205.806 957.479,144.062 903.668,92.725 C864.872,55.714 820.06,28.564 768.022,14.652 C725.304,3.232 681.614,-0.877 637.441,1.172 C596.663,3.064 557.678,12.345 522.288,33.183 C506.623,42.406 490.565,49.585 473.306,55.458 C422.776,72.653 383.517,105.551 353.021,148.736 C305.522,215.999 284.515,291.329 287.266,373.407 C288.904,422.256 301.632,468.156 324.449,511.371 C333.746,528.979 343.297,546.518 348.843,565.841 C355.147,587.81 352.153,607.637 335.854,624.613 C334.205,626.33 333.143,627.401 330.482,626.126 C324.2,623.115 317.358,622.261 310.493,622.99 C306.914,623.37 305.657,621.972 304.346,618.969 C260.82,519.264 217.197,419.601 173.587,319.931 C164.598,299.387 155.646,278.825 146.589,258.311 C144.263,253.04 139.568,251.146 134.778,253.183 C130.389,255.05 128.586,259.821 130.428,264.943 C131.44,267.756 132.577,270.525 133.703,273.296 C181.711,391.477 229.686,509.672 277.878,627.778 C279.782,632.445 278.841,634.261 274.92,636.658 C255.748,648.378 247.04,665.912 247.253,688.122 C247.49,712.775 256.889,734.478 269.697,754.807 C276.443,765.514 286.839,771.778 299.396,774.18 C301.332,774.551 303.104,775.14 304.821,776.402 C326.148,792.087 348.157,806.764 370.951,820.23 C394.018,833.857 417.508,846.594 443.351,854.408 C460.488,859.59 476.59,858.942 492.057,848.708 C502.331,841.91 512.786,835.412 522.36,827.634 C528.234,822.861 533.977,817.926 540.192,812.718 C540.335,813.964 540.433,814.579 540.472,815.197 C542.919,853.79 542.805,892.423 542.268,931.061 C542.172,937.981 544.868,940.992 551.565,940.993 C617.89,941.002 684.214,941.003 750.538,940.992 C756.916,940.991 759.654,938.18 759.588,931.859 C759.505,923.864 759.592,915.862 759.26,907.877 C759.12,904.493 760.006,903.032 763.482,902.166 C771.859,900.079 780.181,897.676 788.359,894.909 C803.037,889.941 817.451,884.286 829.429,874.013 C836.145,868.254 840.883,861.176 840.073,851.94 C837.947,827.713 834.419,803.672 828.925,779.967 C818.999,737.145 804.318,696.169 781.106,658.57 C780.113,656.961 778.896,655.874 781.82,654.597 C789.418,651.278 796.825,647.524 804.308,643.943 C804.841,643.56 805.343,643.125 805.91,642.802 C858.374,612.841 891.06,567.554 908.409,510.42 C911.026,501.8 910.904,501.988 919.834,501.062 C936.907,499.291 949.596,490.997 956.47,474.944 C963.007,459.676 962.998,443.779 959.43,427.922 C955.151,408.907 943.937,399.937 924.605,399.218 C920.67,399.071 919.594,397.945 922.173,394.492 C924.501,391.376 924.592,387.925 922.443,384.712 C920.231,381.405 917.105,380.082 912.971,380.689 C910.04,381.119 906.973,381.052 904.011,380.758 C890.045,379.374 876.544,375.814 863.25,371.483 C820.057,357.409 779.067,338.34 739.536,316.115 C681.968,283.749 635.311,239.779 600.083,183.81 C592.448,171.681 585.658,159.092 579.487,146.165 C577.363,141.718 573.741,140.226 569.19,141.217 C565.112,142.104 562.406,145.391 562.868,149.123 C563.398,153.401 561.008,153.656 558.387,154.603 C508.26,172.707 467.092,202.773 436.423,246.601 C405.344,291.016 389.916,341.136 383.378,394.395 C383.06,396.988 383.213,399.068 379.445,399.279 C360.453,400.342 349.719,409.761 345.272,428.311 C342.906,438.177 343.545,448.139 343.461,458.098 C342.184,459.393 342.831,460.878 343.126,462.273 C344.975,471.04 348.107,479.262 353.572,486.471 C362.222,496.023 372.861,501.581 385.8,502.412 C389.933,502.677 392.415,504.33 393.526,508.646 C395.015,514.431 397.092,520.077 399.124,525.707 C410.283,556.626 426.838,584.237 449.877,607.806 C466.699,625.014 486.08,638.682 507.469,649.524 C508.456,649.514 509.447,649.614 510.446,649.881 C518.539,653.278 526.631,656.675 535.257,660.295 C527.477,670.163 519.843,679.866 512.189,689.552 C493.933,712.656 475.615,735.711 457.479,758.909 C455.346,761.638 453.93,762.194 450.681,760.529 C430.883,750.383 411.188,740.054 391.835,729.079 C390.077,728.082 387.892,727.854 390.159,724.638 C407.14,700.553 402.213,669.239 378.823,650.884 C378.593,650.704 378.502,650.346 378.346,650.071 C378.624,649.839 378.902,649.662 379.18,649.524 C379.073,649.438 378.973,649.348 378.865,649.263 C375.563,646.892 371.818,645.429 368.055,644.014 C363.717,642.344 359.235,642.554 354.737,643.006 C352.647,643.216 351.215,642.324 350.326,640.465 C349.503,638.744 349.932,637.236 351.1,635.85 C351.638,635.213 352.249,634.641 352.78,634.003 C366.687,617.283 372.782,598.323 370.053,576.494 C367.351,554.873 358.303,535.616 348.361,516.74 C334.978,491.331 322.815,465.492 315.627,437.534 C306.885,403.534 303.885,369.097 306.571,334.074 C307.822,317.765 309.996,301.623 313.448,285.675 C321.976,246.274 336.427,209.187 357.919,174.996 C375.997,146.236 398.327,121.372 425.88,101.264 C438.044,92.388 451.359,85.554 464.368,78.151 C468.42,75.896 472.546,73.806 476.966,72.345 C478.598,71.805 479.766,71.704 481.301,73.222 C485.592,77.465 489.928,77.665 494.527,73.641 C501.535,67.507 509.277,62.347 516.862,57.078 C539.391,41.429 564.395,31.131 591.127,25.117 C619.391,18.758 647.996,17.036 676.905,18.763 C702.349,20.282 727.629,23.023 752.46,28.757 C808.494,41.698 855.826,70.365 896.613,110.257 C922.363,135.443 943.764,164.043 960.864,195.787 C993.532,256.435 1009.25,320.7 1002.56,389.853 C998.801,428.757 988.006,465.464 969.975,500.135 C960.921,517.544 951.531,534.816 945.065,553.455 C940.083,567.815 937.553,582.511 939.864,597.618 C942.85,617.148 953.642,632.215 968.283,644.853 C968.929,645.371 969.561,645.908 970.222,646.405 C974.888,649.909 979.869,649.656 983.135,645.759 C986.378,641.889 985.769,636.883 981.551,632.922 C980.824,632.239 980.031,631.626 979.271,630.977" fill="#6E4100"/>
      <path d="M102.247,195.845 C101.915,199.034 100.288,202.02 96.458,203.09 C92.415,204.219 88.833,203.318 86.434,199.56 C82.498,193.396 78.613,187.198 74.718,181.008 C68.963,171.863 63.185,162.732 57.482,153.554 C54.147,148.189 54.908,143.185 59.324,140.467 C63.823,137.699 68.493,139.096 71.924,144.505 C81.362,159.384 90.713,174.317 100.091,189.234 C101.247,191.073 102.309,192.958 102.247,195.845" fill="#EF6F63"/>
      <path d="M47.075,251.905 C43.03,251.052 38.716,249.331 34.493,247.412 C24.986,243.091 15.811,238.063 5.804,234.823 C0.9,233.236 -0.995,228.663 0.498,223.968 C1.884,219.608 6.399,217.46 11.377,218.87 C17.138,220.502 22.68,222.75 28.064,225.328 C35.542,228.909 42.873,232.763 50.764,235.467 C55.043,236.934 56.902,240.467 56.166,244.976 C55.496,249.081 51.691,252.019 47.075,251.905" fill="#EF6F63"/>
    </g>
    <path d="M143.054,119.215 C143.048,114.9 145.688,111.605 149.847,110.921 C154.356,110.178 158.452,112.38 159.431,116.788 C162.485,130.548 164.589,144.485 166.169,158.482 C166.676,162.977 163.191,166.53 158.869,167.06 C154.682,167.575 150.405,165.193 149.706,161.13 C147.317,147.249 145.264,133.311 143.054,119.215" fill="#EF6F63"/>
    <path d="M343.461,458.098 C345.482,468.012 348.722,477.45 354.349,485.955 C367.523,511.649 382.792,536.375 390.747,564.484 C398.547,592.05 391.827,615.686 371.235,635.404 C368.446,638.075 365.409,640.086 369.37,644.033 C369.91,644.571 369.249,645.185 368.446,645.211 C363.716,643.996 358.878,643.244 354.145,644.659 C349.944,645.915 350.273,642.026 348.622,640.42 C346.83,638.676 347.953,637.368 349.323,635.897 C360.289,624.122 367.384,610.389 369.083,594.294 C370.837,577.691 366.89,561.943 360.861,546.605 C353.25,527.241 342.795,509.256 333.767,490.579 C314.656,451.041 305.234,409.205 304.423,365.397 C303.373,308.698 315.409,254.795 340.356,203.938 C364.561,154.596 398.513,113.823 446.937,86.332 C452.512,83.167 458.043,79.778 464.368,78.151 C457.06,83.852 449.634,89.409 442.463,95.278 C417.989,115.31 398.428,139.565 381.801,166.317 C380.787,167.948 380.436,169.414 380.941,171.436 C388.801,202.877 415.621,220.676 447.497,215.512 C449.539,215.182 451.614,215.053 455.013,214.686 C448.018,222.486 440.357,226.551 431.94,229.251 C411.966,235.659 392.179,233.015 372.537,227.53 C367.424,226.102 362.391,224.332 357.428,222.439 C355.006,221.514 354.049,221.895 353.086,224.402 C341.895,253.548 334.188,283.558 330.283,314.543 C327.928,333.226 326.76,351.975 327.563,370.793 C328.802,399.813 333.353,428.291 342.33,455.983 C342.572,456.731 343.078,457.395 343.461,458.098" fill="#FEFEFE"/>
    <path d="M897.231,334.193 C895.543,334.384 893.847,333.745 892.163,332.965 C841.441,309.462 794.922,279.732 755.676,239.553 C731.316,214.614 710.62,187 697.458,154.332 C696.653,152.335 695.837,150.285 695.462,148.181 C694.602,143.357 697.129,139.276 701.45,138.048 C706.137,136.715 710.493,138.778 712.274,143.55 C726.059,180.484 750.079,210.291 778.185,237.012 C810.794,268.014 848.253,292.074 888.614,311.73 C892.803,313.77 897.119,315.572 901.193,317.816 C905.035,319.931 907.103,323.308 905.848,327.823 C904.703,331.941 901.953,334.325 897.231,334.193" fill="#6E4100"/>
    <path d="M401.593,452.116 C394.535,376.02 413.041,306.786 459.167,245.808 C486.915,209.125 524.253,184.951 567.615,169.929 C570.486,168.934 571.551,169.482 572.941,172.034 C614.05,247.502 674.177,303.14 750.33,342.096 C787.359,361.039 825.084,378.282 864.979,390.401 C876.457,393.888 888.094,396.719 900.051,397.853 C903.013,398.133 903.353,399.365 903.524,401.808 C904.917,421.649 903.749,441.374 901.127,461.046 C897.469,460.717 897.22,457.339 895.942,455.028 C888.786,442.088 879.358,431.556 864.903,426.859 C846.017,420.723 829.038,424.925 814.15,437.685 C799.665,450.1 791.538,466.089 790.167,485.01 C789.225,498.026 794.23,509.408 802.854,519.217 C811.265,528.784 822.207,533.706 834.261,536.556 C843.237,538.678 852.255,539.742 861.453,537.447 C867.533,535.931 873.142,533.655 878.117,529.807 C879.597,528.663 880.93,526.692 883.315,528.025 C873.882,552.568 859.789,574.164 841.637,593.085 C809.861,626.205 770.202,644.705 725.897,653.651 C670.958,664.745 616.045,664.096 561.66,649.88 C519.267,638.798 482.568,617.965 453.962,584.146 C441.219,569.08 430.694,552.594 423.112,534.31 C424.03,530.869 426.381,533.022 427.768,533.439 C433.668,535.21 439.537,536.938 445.65,537.948 C464.228,541.018 479.405,534.881 491.723,521.14 C496.38,515.945 500.679,510.408 503.741,504.034 C508.967,493.154 509.508,481.927 506.086,470.494 C500.797,452.82 491.647,437.857 474.639,429.254 C456.103,419.878 432.667,423.782 417.634,438.198 C413.066,442.579 408.64,447.082 405.086,452.377 C403.968,454.043 402.502,455.536 401.593,452.116" fill="#FEF8EA"/>
    <path d="M558.259,937 C559.725,929.776 559.261,922.921 559.32,916.114 C559.643,878.481 559.219,840.862 556.541,803.299 C556.307,800.013 556.192,796.789 557.011,793.418 C557.998,789.352 556.142,785.868 552.191,783.989 C548.005,781.997 544.537,783.277 541.426,786.502 C527.864,800.563 513.247,813.418 497.121,824.478 C491.778,828.142 486.049,831.241 480.694,834.888 C471.691,841.019 462.108,841.096 452.011,838.5 C432.85,833.574 415.332,824.833 398.097,815.465 C374.709,802.752 352.35,788.383 329.895,772.745 C331.627,771.986 332.875,771.478 334.09,770.902 C347.598,764.491 358.38,755.369 363.922,740.995 C365.079,737.994 370.365,737.121 374.197,739.244 C387.137,746.408 399.991,753.732 413.025,760.72 C425.325,767.314 437.789,773.606 450.225,779.943 C457.873,783.841 460.773,783.105 466.024,776.454 C493.981,741.037 522.023,705.686 549.81,670.136 C552.574,666.6 554.914,666.07 558.887,667.269 C567.828,669.968 567.791,669.779 566.676,678.93 C565.188,691.156 563.805,703.395 562.481,715.64 C561.653,723.303 563.415,725.83 570.735,728.076 C576.609,729.877 582.448,731.807 588.37,733.43 C591.273,734.225 591.995,735.169 590.658,738.182 C586.144,748.351 581.977,758.674 577.652,768.927 C574.18,777.158 575.036,780.01 582.449,784.674 C595.683,792.999 608.911,801.331 622.148,809.65 C628.545,813.671 633.612,813.356 636.656,808.78 C639.971,803.797 638.257,798.994 631.71,794.871 C620.733,787.958 609.832,780.919 598.735,774.205 C595.962,772.527 595.71,771.171 596.93,768.378 C601.785,757.27 606.422,746.067 611.086,734.877 C614.451,726.805 612.342,722.536 603.84,719.93 C597.174,717.887 590.528,715.777 583.846,713.79 C581.52,713.098 580.374,712.29 580.777,709.337 C582.242,698.622 583.395,687.86 584.438,677.094 C584.756,673.81 585.74,672.678 589.074,673.796 C591.094,674.472 593.352,674.872 595.466,674.752 C603.173,674.313 606.268,678.067 608.503,685.356 C619.212,720.291 630.654,755.001 641.776,789.81 C642.894,793.307 644.399,796.271 648.165,797.474 C653.271,799.105 657.672,796.364 659.641,790.116 C669.577,758.59 679.474,727.053 689.381,695.518 C691.074,690.131 692.716,684.728 694.455,679.356 C694.938,677.865 695.101,676.199 697.428,675.972 C702.889,675.44 708.341,674.73 713.753,673.827 C716.497,673.369 717.12,674.372 717.379,676.891 C718.485,687.653 719.651,698.414 721.139,709.127 C721.569,712.224 720.427,713.169 717.853,713.903 C710.984,715.859 704.157,717.967 697.327,720.06 C689.589,722.432 687.527,726.973 690.7,734.562 C695.313,745.594 699.701,756.73 704.68,767.594 C706.445,771.444 705.437,772.895 702.221,774.835 C691.256,781.446 680.468,788.351 669.633,795.177 C663.707,798.911 662.093,803.636 665.019,808.425 C667.894,813.128 673.076,813.773 678.945,810.097 C692.617,801.534 706.286,792.968 719.93,784.362 C726.617,780.145 727.558,777.03 724.527,769.794 C720.293,759.686 716.22,749.505 711.742,739.506 C710.092,735.822 710.242,734.076 714.558,733.05 C720.362,731.67 726.028,729.704 731.74,727.948 C737.879,726.063 740.033,723.348 739.399,717 C738.009,703.094 736.432,689.203 734.643,675.343 C734.137,671.416 734.528,669.464 739.073,668.62 C745.575,667.414 751.948,665.335 758.234,663.206 C761.55,662.083 763.134,662.936 764.934,665.795 C783.146,694.722 795.808,726.04 805.32,758.731 C813.803,787.881 818.823,817.68 822.265,847.804 C823.026,854.462 820.885,858.939 815.626,862.662 C802.24,872.138 786.934,877.161 771.511,881.873 C767.638,883.057 762.753,886.314 759.972,884.159 C757.988,882.62 759.286,876.66 759.364,872.678 C760.091,835.392 761.566,798.15 766.158,761.097 C766.995,754.35 764.322,750.174 758.947,749.582 C753.795,749.014 750.173,752.211 749.485,758.226 C746.97,780.225 745.241,802.285 744.142,824.404 C742.647,854.518 742.328,884.646 742.535,914.784 C742.579,921.271 742.81,927.767 743.273,934.236 C743.436,936.507 742.95,937.284 740.758,937.009 C740.266,936.947 739.76,937.001 739.26,937.001 C679.942,937.001 620.625,937 561.307,937 C560.489,937 559.671,937 558.259,937" fill="#FEFEFE"/>
    <path d="M883.315,528.025 C880.509,528.232 879.309,530.829 877.253,532.168 C865.763,539.655 853.296,541.372 840.015,539.057 C824.189,536.299 809.841,530.692 799.655,517.527 C788.844,503.554 785.992,487.983 791.342,471.08 C798.997,446.897 813.839,429.436 839.305,423.844 C855.154,420.364 869.994,424.345 882.384,435.549 C889.267,441.773 894.785,448.971 898.553,457.486 C899.145,458.825 899.601,460.345 901.127,461.045 C897.925,484.1 892.739,506.626 883.315,528.025" fill="#FFD5BA"/>
    <path d="M401.593,452.116 C403.424,454.441 403.655,452.2 404.382,451.17 C413.353,438.45 424.594,428.715 439.891,424.402 C459.396,418.902 481.594,426.646 493.998,443.476 C503.031,455.731 509.23,469.082 509.454,484.742 C509.619,496.316 505.131,506.021 498.412,515.005 C488.976,527.618 477.775,537.473 461.328,539.588 C450.673,540.957 440.564,538.791 430.497,535.693 C428.134,534.965 425.9,532.964 423.113,534.31 C413.797,514.732 408.29,493.988 404.459,472.76 C403.226,465.929 402.533,459 401.593,452.116" fill="#FFD5BA"/>
    <path d="M510.446,649.881 C489.755,655.09 468.792,658.311 447.452,659.432 C428.359,660.435 409.621,658.861 391.132,654.001 C386.809,652.864 382.919,650.36 378.346,650.071 C375.045,648.451 371.744,646.831 368.444,645.211 C368.59,644.932 368.932,644.549 368.848,644.389 C367.838,642.459 363.957,642.327 364.924,639.537 C365.543,637.751 367.944,636.588 369.533,635.131 C393.727,612.946 397.564,586.262 386.967,556.367 C380.557,538.284 371.344,521.523 362.697,504.487 C359.634,498.452 355.941,492.668 354.35,485.956 C361.787,493.1 370.06,498.739 380.499,500.484 C380.825,500.538 381.156,500.795 381.453,500.751 C391.898,499.21 394.13,505.912 396.68,514.192 C408.038,551.077 426.759,583.732 454.678,610.752 C469.982,625.563 487.226,637.672 506.146,647.423 C507.612,648.178 509.014,649.059 510.446,649.881" fill="#D7AA6F"/>
    <path d="M314.823,758.03 C298.644,757.733 288.385,753.165 282.286,742.151 C273.336,725.987 265.506,709.315 264.801,690.298 C264.212,674.428 269.128,661.265 282.964,652.255 C291.088,646.966 299.361,642.039 309.129,640.546 C318.092,639.175 325.99,641.647 332.318,648.189 C338.427,654.505 337.728,661.376 330.542,666.297 C327.406,668.444 323.981,670.2 320.582,671.928 C316.254,674.129 314.491,677.627 315.573,682.196 C316.623,686.628 319.953,688.666 324.409,688.855 C328.23,689.017 332.105,688.747 335.865,689.294 C343.065,690.341 345.595,695.015 343.066,701.935 C342.015,704.812 340.114,707.064 337.833,709.101 C331.687,714.589 332.625,721.442 339.936,725.108 C348.673,729.489 349.654,734.926 343.067,742.467 C333.868,752.997 323.365,758.084 314.823,758.03" fill="#FEF8EA"/>
    <path d="M676.527,677.823 C672.383,690.952 668.389,703.395 664.58,715.894 C663.99,717.829 662.955,718.048 661.344,718.041 C654.198,718.01 647.049,717.935 639.905,718.08 C637.543,718.128 636.844,717.016 636.22,715.034 C632.398,702.875 628.451,690.756 624.297,677.849 C641.818,678.574 658.92,678.991 676.527,677.823" fill="#FEF8EA"/>
    <path d="M944.201,445.958 C944.129,452.523 943.587,458.308 941.941,463.92 C938.548,475.487 930.229,482.383 918.352,483.797 C916.012,484.076 915.04,483.847 915.598,481.046 C919.604,460.951 921.509,440.638 921.451,420.15 C921.444,417.871 922.04,416.977 924.483,416.842 C931.961,416.429 937.261,419.398 940.499,426.257 C943.555,432.733 943.889,439.705 944.201,445.958" fill="#FEF8EA"/>
    <path d="M378.707,416.9 C381.345,416.302 382.283,417.5 382.29,420.648 C382.335,440.838 384.141,460.877 388.132,480.687 C388.723,483.623 387.913,483.957 385.093,483.475 C373.991,481.576 366.594,475.451 363.394,464.703 C359.844,452.782 359.795,440.706 363.472,428.8 C365.914,420.894 371.045,417.052 378.707,416.9" fill="#FEF8EA"/>
    <path d="M382.579,693.978 C382.541,701.684 380.645,708.749 375.572,714.786 C373.37,717.407 370.72,719.335 367.487,720.366 C365.536,720.988 362.804,722.596 361.691,720.182 C360.292,717.151 355.792,715.563 358.351,710.395 C364.929,697.11 361.738,685.551 349.79,675.665 C349.215,675.189 347.808,674.736 348.505,673.932 C351.531,670.439 351.218,664.694 355.88,662.472 C360.263,660.383 364.29,661.966 368.002,664.633 C376.499,670.738 382.583,682.973 382.579,693.978" fill="#FEF8EA"/>
    <path d="M555.256,407.649 C554.825,415.129 553.557,423.092 547.099,429.175 C539.049,436.759 528.561,436.336 521.031,428.118 C511.159,417.346 509.737,401.012 518.265,386.855 C521.05,382.23 522.317,378.297 520.268,373.243 C519.282,370.812 519.02,368.081 518.5,365.472 C517.696,361.437 518.993,358.304 523.206,357.552 C527.05,356.865 529.504,358.981 530.3,362.856 C530.501,363.832 530.757,364.799 530.918,365.781 C531.671,370.362 532.111,374.039 538.727,374.784 C545.047,375.495 548.566,381.71 551.154,387.449 C553.922,393.585 555.13,400.111 555.256,407.649" fill="#6E4100"/>
    <path d="M789.883,406.801 C789.845,413.034 788.918,419.046 785.653,424.511 C778.177,437.023 763.582,438.026 754.574,426.637 C745.598,415.288 744.895,399.953 753.476,386.066 C756.069,381.871 756.759,378.333 755.187,373.809 C754.107,370.702 753.649,367.341 753.234,364.052 C752.796,360.576 754.485,358.166 757.966,357.566 C761.358,356.982 763.734,358.576 764.795,361.886 C765.147,362.985 765.24,364.165 765.489,365.3 C766.48,369.816 766.335,374.443 773.496,374.746 C778.476,374.956 781.768,379.884 784.293,384.337 C788.242,391.3 789.878,398.849 789.883,406.801" fill="#6E4100"/>
    <path d="M654.649,572.741 C635.641,572.377 623.177,566.871 615.504,552.884 C614.403,550.878 613.601,548.626 613.102,546.389 C612.213,542.4 613.91,539.359 617.761,538.229 C621.525,537.124 624.965,538.396 626.246,542.337 C630.232,554.598 641.152,559.29 653.98,558.512 C665.092,557.838 672.037,552.441 675.54,541.753 C677.158,536.819 680.621,534.721 684.91,536.077 C688.656,537.262 690.325,541.208 689.091,545.966 C684.846,562.342 669.433,573.134 654.649,572.741" fill="#6E4100"/>
    <path d="M536.906,238.538 C542.979,238.495 548.385,240.329 552.834,244.479 C555.492,246.958 555.911,250.012 553.593,252.948 C551.573,255.504 548.84,255.781 546.002,254.318 C534.484,248.38 523.253,251.371 516.222,262.294 C515.953,262.712 515.751,263.174 515.477,263.588 C513.378,266.762 510.404,267.44 507.262,265.71 C504.221,264.036 503.616,261.07 504.937,257.933 C506.573,254.045 509.263,250.899 512.447,248.164 C519.486,242.117 527.539,238.656 536.906,238.538" fill="#6E4100"/>
    <path d="M659.409,421.693 C659.672,425.749 658.533,427.823 656.234,428.765 C653.881,429.729 651.162,429.83 649.379,427.587 C647.228,424.881 645.162,422.029 643.584,418.969 C642.168,416.223 642.793,413.334 645.482,411.495 C648.321,409.554 651.335,409.826 653.45,412.553 C655.942,415.767 658.644,418.958 659.409,421.693" fill="#6F4300"/>
    <path d="M637.188,854.222 C637.128,847.607 642.103,842.361 648.606,842.182 C655.021,842.006 660.4,847.21 660.523,853.709 C660.654,860.666 655.622,865.971 648.879,865.985 C642.332,865.999 637.249,860.885 637.188,854.222" fill="#6E4100"/>
    <path d="M660.52,922.808 C660.3,929.338 654.965,934.259 648.39,933.998 C641.81,933.736 637.061,928.584 637.189,921.848 C637.315,915.201 642.386,910.368 649.109,910.487 C656.028,910.609 660.758,915.716 660.52,922.808" fill="#6E4100"/>
  </g>
</svg>
